<svg width="210"
     height="42"
     viewBox="0 0 210 42"
     xmlns="http://www.w3.org/2000/svg"
     class="SBIcon SBIcon-Logo">
    <path id="Superbolt Logo_2"
          fill-rule="evenodd"
          clip-rule="evenodd"
          d="M20.6714 17.5H35.4367L14.7653 42V24.5H0L20.6714 0V17.5ZM138.38 27.6818L142.196 11.1873H146.609L145.265 16.9581C146.021 16.7612 146.775 16.5787 147.529 16.4105C149.598 15.9371 151.306 15.7004 152.655 15.7004C153.957 15.7004 154.961 15.9295 155.666 16.3876C156.386 16.8305 156.83 17.5178 156.999 18.4495C157.183 19.3811 157.106 20.58 156.769 22.0462C156.447 23.436 156.018 24.5356 155.482 25.3451C154.946 26.1393 154.21 26.7273 153.275 27.1091C152.356 27.4909 151.145 27.6818 149.644 27.6818H138.38ZM143.552 24.3142L144.498 20.2551C145.435 20.0383 146.384 19.8487 147.345 19.6865C149.245 19.3505 151.069 19.1825 152.816 19.1825L151.62 24.3142H143.552ZM184.142 28.0484C182.916 28.0484 181.927 27.8651 181.177 27.4985C180.441 27.132 179.943 26.5975 179.682 25.8949C179.422 25.1924 179.407 24.3371 179.636 23.3291L182.464 11.1873H186.877L183.728 24.7265C186.103 24.7113 188.838 24.5051 191.934 24.108L190.969 27.636C189.972 27.7582 188.831 27.8575 187.544 27.9338C186.256 28.0102 185.122 28.0484 184.142 28.0484ZM199.495 28.0484C198.27 28.0484 197.304 27.9033 196.599 27.6131C195.894 27.3229 195.427 26.8724 195.197 26.2614C194.967 25.6505 194.967 24.864 195.197 23.9018L196.27 19.2742H191.933L192.669 16.0669H197.014L197.725 12.9971H202.116L201.412 16.0669H210L209.241 19.2742H200.677L199.426 24.7265C200.913 24.7113 202.438 24.6425 204.001 24.5204C205.579 24.3829 207.073 24.2149 208.483 24.0164L207.518 27.5444C206.613 27.6818 205.303 27.7964 203.587 27.888C201.886 27.9949 200.522 28.0484 199.495 28.0484ZM161.639 27.4298C162.88 27.8422 164.627 28.0484 166.88 28.0484C169.163 28.0484 170.948 27.8804 172.236 27.5444C173.538 27.1931 174.542 26.6051 175.247 25.7804C175.967 24.9404 176.511 23.7262 176.879 22.1378C177.262 20.5342 177.254 19.2665 176.856 18.3349C176.457 17.4033 175.637 16.7313 174.396 16.3189C173.17 15.9065 171.431 15.7004 169.178 15.7004C166.895 15.7004 165.102 15.876 163.8 16.2273C162.497 16.5633 161.493 17.1513 160.788 17.9913C160.084 18.816 159.547 20.0149 159.179 21.588C158.796 23.1916 158.796 24.4669 159.179 25.4138C159.578 26.3454 160.398 27.0175 161.639 27.4298ZM169.822 24.4974C169.025 24.5127 168.221 24.5204 167.408 24.5204C166.596 24.5204 165.792 24.5127 164.995 24.4974C164.213 24.4822 163.585 24.4593 163.11 24.4287L164.305 19.2971C164.597 19.2818 165.186 19.2665 166.075 19.2513C166.964 19.236 167.815 19.2284 168.627 19.2284C169.439 19.2284 170.289 19.236 171.178 19.2513C172.067 19.2665 172.649 19.2818 172.925 19.2971L171.73 24.4287C171.255 24.4593 170.619 24.4822 169.822 24.4974ZM120.242 24.4745L119.506 27.6818H134.746L135.482 24.4745H128.471L129.128 21.6334C130.302 21.0797 131.247 20.6598 131.965 20.3738C132.731 20.0531 133.513 19.8011 134.309 19.6178C135.106 19.4193 135.926 19.32 136.769 19.32C137.367 19.32 137.734 19.3276 137.872 19.3429L138.723 15.7462C138.478 15.7156 138.064 15.7004 137.481 15.7004C136.378 15.7004 135.053 15.9371 133.505 16.4105C132.242 16.8007 130.927 17.3257 129.56 17.9856L129.046 16.0669H122.196L121.437 19.2742H125.276L124.081 24.4745H120.242ZM108.498 28.0484C106.413 28.0484 104.812 27.8498 103.693 27.4527C102.59 27.0404 101.87 26.3913 101.533 25.5054C101.196 24.6196 101.203 23.4207 101.556 21.9087C101.954 20.2287 102.491 18.9534 103.165 18.0829C103.854 17.2124 104.827 16.6014 106.084 16.2502C107.341 15.8836 109.088 15.7004 111.325 15.7004C113.531 15.7004 115.225 15.9142 116.405 16.3418C117.6 16.7542 118.382 17.4338 118.749 18.3807C119.117 19.3124 119.117 20.5724 118.749 22.1607C118.673 22.4662 118.573 22.7487 118.451 23.0084H105.824L105.394 24.864C107.923 24.864 109.999 24.8258 111.624 24.7494C113.263 24.6578 115.095 24.5127 117.117 24.3142L116.175 27.6818C115.24 27.7734 113.961 27.8574 112.336 27.9338C110.727 28.0102 109.448 28.0484 108.498 28.0484ZM106.353 20.7174H114.727L115.118 18.9993L113.003 18.9535C112.298 18.9382 111.593 18.9305 110.888 18.9305C110.229 18.9305 109.555 18.9382 108.865 18.9535C108.176 18.9687 107.471 18.984 106.751 18.9993L106.353 20.7174ZM83.4899 16.0669L79.6283 32.7218H84.0416L85.2056 27.6818H92.0637C93.5808 27.6818 94.799 27.4909 95.7185 27.1091C96.6379 26.7273 97.3658 26.1393 97.9021 25.3451C98.4385 24.5356 98.8752 23.436 99.2123 22.0462C99.5648 20.58 99.649 19.3811 99.4652 18.4494C99.2966 17.5178 98.8522 16.8305 98.132 16.3876C97.4118 15.9295 96.3927 15.7004 95.0748 15.7004C93.7263 15.7004 92.0177 15.9371 89.949 16.4105C89.0487 16.6099 88.1513 16.8296 87.2567 17.0695L86.8459 16.0669H83.4899ZM85.9834 24.3142L86.9217 20.2515C87.854 20.0362 88.8018 19.8478 89.7651 19.6865C91.6806 19.3505 93.5118 19.1825 95.2587 19.1825L94.0635 24.3142H85.9834ZM65.3256 28.0484C63.7932 28.0484 62.7205 27.7124 62.1076 27.0404C61.4946 26.3531 61.349 25.3069 61.6708 23.9018L63.4867 16.0669H67.877L65.9462 24.4516C66.789 24.4516 68.0533 24.2684 69.7389 23.9018C71.1506 23.5976 72.4726 23.2408 73.7049 22.8314L75.2785 16.0669H79.6688L77.0025 27.6818H73.5546L73.1749 26.4203C71.9732 26.8053 70.8202 27.1418 69.7159 27.4298C68.0763 27.8422 66.6128 28.0484 65.3256 28.0484ZM43.1677 27.7276C45.834 27.9415 48.6077 28.0484 51.4886 28.0484C53.2815 28.0484 54.6836 27.9415 55.695 27.7276C56.7064 27.5138 57.4649 27.1702 57.9706 26.6967C58.4763 26.208 58.8288 25.536 59.028 24.6807C59.2119 23.856 59.1812 23.1764 58.936 22.6418C58.7062 22.1073 58.2618 21.7025 57.6029 21.4276C56.9439 21.1374 56.0628 20.9465 54.9595 20.8549L48.8682 20.3967L49.213 18.8389C50.6841 18.8389 52.4157 18.8924 54.4078 18.9993C56.4152 19.1062 58.1085 19.236 59.4877 19.3887L60.0853 15.9753C58.9207 15.8989 57.5952 15.8378 56.1088 15.792C54.6377 15.7309 53.3505 15.7004 52.2471 15.7004C50.5155 15.7004 49.144 15.8149 48.1326 16.044C47.1366 16.2578 46.378 16.6091 45.857 17.0978C45.336 17.5865 44.9759 18.2662 44.7767 19.1367C44.5928 19.9462 44.6158 20.6182 44.8456 21.1527C45.0908 21.6873 45.5276 22.0996 46.1558 22.3898C46.7994 22.68 47.6346 22.8633 48.6613 22.9396L54.9595 23.3978L54.6147 24.9327C53.0976 24.9327 51.4886 24.8869 49.7876 24.7953C48.0867 24.7036 46.0792 24.5356 43.7653 24.2913L43.1677 27.7276Z"
          fill="#3ffff3" />
</svg>